<?xml version="1.0" encoding="UTF-8" ?>
<!DOCTYPE svg PUBLIC "-//W3C//DTD SVG 1.1//EN" "http://www.w3.org/Graphics/SVG/1.1/DTD/svg11.dtd">
<svg width="475pt" height="475pt" viewBox="0 0 475 475" version="1.1" xmlns="http://www.w3.org/2000/svg">
<path fill="#826442" d=" M 0.00 0.00 L 158.74 0.00 C 149.48 7.64 140.86 16.05 131.12 23.10 C 119.72 30.45 110.70 40.78 102.22 51.22 C 95.62 60.50 91.06 71.03 86.31 81.33 C 81.84 90.02 76.71 98.36 71.86 106.84 C 67.89 114.06 61.77 119.76 57.73 126.94 C 54.22 131.33 50.37 135.43 46.67 139.65 C 42.83 144.10 40.23 149.42 37.72 154.68 C 34.38 161.45 33.58 169.06 31.10 176.13 C 28.23 181.76 24.75 187.47 24.76 194.01 C 24.51 197.56 26.37 200.70 27.96 203.72 C 25.14 204.59 22.31 205.43 19.48 206.23 C 19.51 204.12 19.57 202.00 19.60 199.89 C 10.95 203.03 2.86 209.53 0.00 218.53 L 0.00 0.00 Z" />
<path fill="#130b09" d=" M 158.74 0.00 L 352.69 0.00 C 355.35 1.63 357.73 3.65 360.05 5.73 C 364.20 13.10 371.12 18.13 377.01 24.00 C 382.15 28.91 388.04 32.92 393.38 37.60 C 397.55 41.25 402.15 44.34 406.81 47.30 C 409.11 49.64 411.32 52.07 413.24 54.73 C 412.52 56.16 411.80 57.60 411.09 59.03 C 415.44 64.44 419.79 69.89 423.39 75.84 C 424.77 79.43 426.14 83.03 427.37 86.67 C 427.47 91.79 427.88 96.90 427.94 102.02 C 428.03 108.35 425.56 114.47 426.20 120.82 C 426.90 127.68 428.72 134.35 429.93 141.13 C 431.34 149.11 434.30 156.77 434.94 164.89 C 435.66 172.61 436.88 180.28 437.22 188.04 C 437.66 197.23 440.87 205.99 441.98 215.10 C 440.09 215.01 437.81 213.94 436.22 215.38 C 435.62 218.42 435.99 221.54 436.18 224.60 C 437.26 224.95 438.35 225.31 439.44 225.68 C 440.08 223.56 440.76 221.45 441.48 219.36 C 442.12 226.24 441.77 233.18 442.84 240.02 C 443.21 243.02 443.67 246.01 444.03 249.02 C 444.83 255.56 444.98 262.16 445.54 268.72 C 446.60 279.67 445.92 290.68 446.11 301.65 C 444.75 301.87 443.37 302.03 442.06 302.46 C 440.24 305.61 440.45 309.44 439.77 312.93 C 438.56 317.55 437.17 322.12 435.83 326.70 C 433.88 332.64 432.18 338.70 429.53 344.37 C 428.38 347.20 425.59 348.69 423.04 350.03 C 419.55 351.83 416.17 353.82 412.80 355.83 C 411.16 356.66 409.46 357.38 407.78 358.10 C 409.42 356.39 411.11 354.71 412.79 353.03 C 410.98 353.60 409.18 354.18 407.37 354.76 C 406.58 350.46 405.43 346.21 405.18 341.83 C 404.93 337.25 407.51 333.25 409.10 329.13 C 411.54 323.49 411.17 317.11 413.63 311.48 C 414.58 309.05 415.88 306.70 416.19 304.08 C 415.69 301.77 414.36 299.77 413.26 297.71 C 414.76 293.45 415.87 289.03 415.81 284.48 C 413.82 287.18 412.33 290.22 411.30 293.41 C 409.16 299.81 406.53 306.18 406.21 313.00 C 405.94 317.78 405.44 322.55 404.23 327.20 C 401.41 337.65 404.76 348.30 406.01 358.72 C 403.79 361.06 401.22 363.49 400.97 366.92 C 400.19 372.54 399.20 378.20 399.27 383.89 C 399.24 386.51 401.78 387.97 403.38 389.67 C 402.69 387.39 401.93 385.14 401.16 382.89 C 403.56 385.82 405.61 389.13 408.60 391.51 C 411.12 392.26 413.77 391.19 416.28 390.77 C 415.05 393.38 413.40 395.96 413.28 398.92 C 413.54 404.25 415.85 409.99 421.17 412.06 C 421.77 413.73 422.46 415.37 423.09 417.04 C 422.64 418.53 422.19 420.01 421.74 421.51 C 419.15 417.63 416.80 413.59 414.17 409.74 C 415.27 413.55 416.36 417.35 417.27 421.21 C 417.03 420.75 416.53 419.84 416.28 419.38 C 414.56 416.26 412.56 413.31 410.46 410.45 C 409.76 411.74 409.08 413.05 408.41 414.36 C 407.17 414.06 405.94 413.77 404.71 413.49 C 405.35 416.97 406.13 420.44 406.85 423.91 C 405.99 422.53 405.13 421.15 404.36 419.72 C 404.20 419.13 403.88 417.94 403.73 417.35 C 403.33 415.89 402.95 414.43 402.58 412.98 C 398.04 413.50 393.42 413.78 389.04 415.15 C 386.03 416.00 384.56 419.00 383.10 421.49 C 382.74 422.13 382.03 423.41 381.68 424.05 C 380.96 425.02 380.35 426.22 379.15 426.67 C 377.10 425.76 375.25 424.45 373.37 423.25 C 371.40 426.05 369.97 429.16 368.91 432.40 C 377.17 434.18 386.85 433.33 393.41 439.55 C 397.39 443.20 401.94 446.42 404.93 450.99 C 407.56 455.34 405.27 460.39 403.87 464.74 C 407.55 462.06 410.56 458.62 412.90 454.73 C 415.31 456.56 417.74 458.37 420.24 460.09 C 421.36 455.83 422.54 451.47 422.15 447.03 C 421.71 441.95 421.06 436.87 421.33 431.76 C 423.57 439.30 422.69 447.23 423.15 454.98 C 423.50 461.31 423.13 467.66 422.19 473.93 C 424.17 473.90 426.16 473.88 428.15 473.86 C 443.77 473.83 459.38 473.84 475.00 473.86 L 475.00 475.00 L 0.00 475.00 L 0.00 270.60 C 3.99 269.88 7.93 268.84 11.68 267.30 C 9.91 264.02 7.94 260.78 6.99 257.14 C 4.16 245.99 3.33 234.40 4.03 222.93 C 4.15 219.83 5.42 216.82 7.65 214.66 C 13.74 208.21 25.06 210.85 30.10 203.03 C 34.29 197.68 33.14 190.51 32.39 184.27 C 31.43 186.38 30.50 188.51 29.54 190.63 C 29.87 185.78 30.21 180.91 31.10 176.13 C 33.58 169.06 34.38 161.45 37.72 154.68 C 40.23 149.42 42.83 144.10 46.67 139.65 C 50.37 135.43 54.22 131.33 57.73 126.94 C 61.77 124.30 65.90 121.73 69.50 118.50 C 74.03 114.61 77.38 109.61 80.76 104.74 C 85.78 97.63 87.58 88.95 91.16 81.13 C 97.09 65.95 106.34 52.25 117.14 40.12 C 122.42 34.96 126.74 29.00 131.12 23.10 C 140.86 16.05 149.48 7.64 158.74 0.00 Z" />
<path fill="#9b7b51" d=" M 352.69 0.00 L 366.19 0.00 C 367.65 2.81 368.62 5.91 370.57 8.44 C 373.81 11.82 378.98 12.38 382.23 15.74 C 383.24 18.73 383.00 21.97 383.10 25.08 C 375.54 18.47 369.17 10.36 360.05 5.73 C 357.73 3.65 355.35 1.63 352.69 0.00 Z" />
<path fill="#b39164" d=" M 366.19 0.00 L 475.00 0.00 L 475.00 425.30 C 473.12 424.44 471.20 423.69 469.28 422.95 C 469.57 425.36 469.86 427.78 470.17 430.19 C 467.82 431.07 465.46 431.95 463.11 432.83 C 462.70 432.31 461.87 431.26 461.46 430.73 C 463.30 430.13 465.13 429.50 466.97 428.91 C 463.57 424.66 462.31 419.17 459.18 414.81 C 451.45 414.86 443.34 415.13 436.18 411.66 C 432.92 409.21 430.56 405.33 430.01 401.28 C 431.29 399.34 433.00 397.74 434.62 396.08 C 432.98 393.13 430.99 390.24 430.39 386.86 C 430.15 384.16 431.19 381.57 432.04 379.06 C 432.25 378.52 432.67 377.43 432.88 376.88 C 433.58 376.06 434.32 375.27 435.07 374.48 C 437.74 374.89 440.42 375.26 443.09 375.68 C 441.49 374.06 439.67 372.56 438.58 370.53 C 437.48 367.44 437.73 364.06 437.85 360.84 C 441.27 350.45 442.70 339.56 444.88 328.88 C 446.55 328.67 448.23 328.46 449.91 328.27 C 450.22 316.85 449.96 305.42 450.02 294.00 C 450.12 284.48 448.35 275.10 447.09 265.71 C 446.54 260.07 445.61 254.49 445.11 248.85 C 444.60 238.90 443.35 228.98 443.65 219.00 C 443.78 212.74 443.87 206.43 442.59 200.27 C 441.32 193.98 441.80 187.55 441.43 181.20 C 440.82 173.18 439.60 165.22 438.15 157.32 C 436.12 143.10 434.02 128.88 432.48 114.58 C 431.99 109.33 432.08 104.03 431.25 98.82 C 430.62 94.58 428.86 90.65 427.37 86.67 C 426.14 83.03 424.77 79.43 423.39 75.84 C 421.19 68.30 417.83 61.12 413.24 54.73 C 411.32 52.07 409.11 49.64 406.81 47.30 C 399.91 38.86 390.97 32.54 383.10 25.08 C 383.00 21.97 383.24 18.73 382.23 15.74 C 378.98 12.38 373.81 11.82 370.57 8.44 C 368.62 5.91 367.65 2.81 366.19 0.00 Z" />
<path fill="#63472a" d=" M 360.05 5.73 C 369.17 10.36 375.54 18.47 383.10 25.08 C 390.97 32.54 399.91 38.86 406.81 47.30 C 402.15 44.34 397.55 41.25 393.38 37.60 C 388.04 32.92 382.15 28.91 377.01 24.00 C 371.12 18.13 364.20 13.10 360.05 5.73 Z" />
<path fill="#644c2e" d=" M 102.22 51.22 C 110.70 40.78 119.72 30.45 131.12 23.10 C 126.74 29.00 122.42 34.96 117.14 40.12 C 106.34 52.25 97.09 65.95 91.16 81.13 C 87.58 88.95 85.78 97.63 80.76 104.74 C 77.38 109.61 74.03 114.61 69.50 118.50 C 65.90 121.73 61.77 124.30 57.73 126.94 C 61.77 119.76 67.89 114.06 71.86 106.84 C 76.71 98.36 81.84 90.02 86.31 81.33 C 91.06 71.03 95.62 60.50 102.22 51.22 Z" />
<path fill="#4f301b" d=" M 413.24 54.73 C 417.83 61.12 421.19 68.30 423.39 75.84 C 419.79 69.89 415.44 64.44 411.09 59.03 C 411.80 57.60 412.52 56.16 413.24 54.73 Z" />
<path fill="#663820" d=" M 288.61 68.63 C 291.20 66.28 294.77 67.74 297.76 68.22 C 304.01 69.72 310.38 70.60 316.75 71.35 C 325.47 72.39 333.30 76.87 341.99 78.03 C 349.70 79.14 357.13 81.50 364.70 83.25 C 363.74 83.98 362.79 84.71 361.85 85.45 C 365.91 86.10 369.98 86.76 374.05 87.38 C 372.24 87.73 370.44 88.13 368.65 88.51 C 374.03 91.03 380.24 92.98 383.75 98.14 C 389.81 109.21 393.30 121.55 394.97 134.02 C 392.54 125.25 389.86 116.45 385.46 108.44 C 383.25 104.49 379.68 101.51 375.97 99.02 C 371.36 95.95 365.64 95.86 360.45 94.42 C 349.78 91.59 339.79 85.51 328.43 86.01 C 328.08 88.45 327.73 90.90 327.38 93.35 C 326.67 91.65 325.98 89.96 325.29 88.26 C 322.48 90.80 319.40 93.40 318.30 97.19 C 316.79 101.79 315.11 106.36 312.48 110.45 C 308.77 116.23 306.89 123.07 306.80 129.91 C 306.74 133.34 308.78 136.26 310.27 139.20 C 308.86 139.38 307.45 139.55 306.05 139.73 C 307.74 154.22 306.09 169.20 310.79 183.24 C 312.75 187.56 318.69 187.86 321.03 191.91 C 321.90 193.59 322.41 195.43 322.98 197.23 C 324.91 197.02 326.99 196.17 328.87 196.90 C 331.55 199.14 333.11 202.37 335.06 205.21 C 338.08 197.11 341.97 188.86 340.62 179.97 C 342.27 181.06 343.93 182.14 345.60 183.22 C 346.17 187.16 345.27 192.39 349.22 194.83 C 352.90 197.74 357.81 196.58 362.09 196.30 C 371.40 195.32 380.76 196.33 390.09 195.98 C 394.38 195.90 399.13 194.11 401.22 190.13 C 402.19 185.67 400.77 181.12 400.37 176.66 C 398.97 164.38 397.20 152.13 396.09 139.82 C 397.38 144.26 397.97 148.85 398.41 153.44 C 399.06 160.41 400.55 167.25 401.94 174.10 C 403.54 181.05 402.25 188.28 403.95 195.22 C 402.06 196.97 400.13 198.68 398.19 200.37 C 399.68 204.45 402.13 208.44 402.07 212.89 C 400.34 221.64 392.66 227.58 390.01 235.96 C 388.10 242.11 386.66 248.51 386.98 255.00 C 387.26 262.05 385.75 269.00 385.85 276.05 C 385.94 279.67 384.62 283.11 382.82 286.19 C 383.42 276.78 385.49 267.46 384.99 257.99 C 384.66 251.41 385.56 244.77 384.64 238.23 C 383.68 232.69 375.70 234.15 373.57 229.45 C 372.36 227.12 371.61 224.59 370.79 222.12 C 374.84 224.77 378.68 228.89 383.85 228.86 C 387.83 228.69 385.79 223.93 386.01 221.42 C 385.11 214.72 390.25 209.66 392.40 203.81 C 392.95 201.96 390.97 200.76 389.37 200.66 C 384.27 199.89 379.12 199.24 373.96 199.10 C 369.26 199.04 365.94 202.88 362.40 205.41 C 354.78 211.80 344.85 214.41 337.10 220.62 C 336.62 218.78 336.14 216.94 335.66 215.11 C 335.19 215.23 334.25 215.47 333.78 215.59 C 331.27 219.19 328.03 222.22 324.27 224.48 C 323.63 232.65 323.79 240.88 325.01 248.99 C 326.25 256.87 325.64 264.91 327.16 272.75 C 328.28 278.79 329.81 284.79 330.01 290.95 C 330.44 298.31 329.49 305.68 330.10 313.02 C 330.35 317.24 333.52 320.33 336.04 323.40 C 334.03 325.80 331.94 328.12 329.80 330.40 C 331.28 333.67 332.71 337.11 335.43 339.57 C 338.63 342.75 342.82 344.78 345.86 348.14 C 347.80 351.53 346.98 356.14 349.91 359.06 C 351.68 359.90 353.71 359.88 355.61 360.19 C 358.81 353.81 361.69 347.27 364.96 340.92 C 363.12 348.43 359.39 355.28 356.18 362.27 C 351.04 371.18 346.23 380.28 341.22 389.27 C 336.78 397.34 329.48 403.73 326.73 412.72 C 325.77 416.67 322.58 419.23 319.39 421.42 C 318.59 420.18 317.79 418.93 317.00 417.69 C 316.09 423.09 314.10 428.45 310.57 432.70 C 309.28 432.71 308.08 432.15 306.88 431.80 C 307.20 433.43 307.51 435.07 307.82 436.71 C 305.67 436.90 303.53 437.09 301.39 437.29 C 301.01 438.94 300.64 440.60 300.25 442.25 C 297.31 444.21 294.57 446.45 292.09 448.97 C 291.49 446.26 290.88 443.55 290.32 440.84 C 289.45 442.92 288.71 445.05 287.89 447.16 C 287.09 444.83 287.18 441.64 284.73 440.33 C 282.40 440.65 280.33 441.82 278.22 442.77 C 275.54 439.47 273.55 435.68 272.36 431.61 C 270.86 426.16 266.30 421.82 266.43 415.92 C 264.76 416.13 263.09 416.35 261.42 416.57 C 260.62 413.88 259.77 411.21 258.99 408.52 C 261.90 407.50 264.81 406.10 267.97 406.21 C 271.46 406.26 274.97 406.48 278.42 405.76 C 278.92 406.44 279.43 407.13 279.94 407.83 C 286.59 406.33 294.07 409.20 300.07 405.07 C 301.39 403.35 302.19 401.32 303.11 399.38 C 301.72 398.08 299.56 397.19 299.18 395.14 C 301.03 393.11 303.66 394.22 305.90 394.71 C 305.59 393.52 305.29 392.34 304.99 391.16 C 302.31 389.44 299.79 387.25 296.66 386.41 C 293.37 386.17 290.22 387.49 287.06 388.24 C 283.70 384.05 279.07 381.33 274.81 378.21 C 272.65 377.05 273.28 374.47 273.15 372.47 C 281.97 371.63 290.90 371.25 299.59 369.47 C 302.51 368.88 302.12 365.38 300.09 363.96 C 296.12 360.85 291.89 358.05 288.41 354.35 C 289.98 353.32 291.49 352.18 293.22 351.42 C 295.50 351.88 297.55 353.07 299.66 354.03 C 300.06 352.64 300.45 351.27 300.85 349.89 C 301.74 352.01 302.62 354.14 303.52 356.26 C 306.92 355.65 310.90 355.14 312.97 351.98 C 315.33 348.39 318.60 344.22 317.39 339.67 C 316.73 336.86 313.29 337.95 311.45 336.64 C 310.00 334.88 309.61 332.54 308.97 330.42 C 313.65 329.76 318.33 330.39 323.00 330.75 C 325.46 331.18 327.04 329.03 328.61 327.55 C 326.22 327.60 323.83 327.72 321.45 327.86 C 320.54 310.25 321.41 292.59 321.00 274.96 C 320.10 263.02 319.35 251.07 318.77 239.11 C 318.39 233.71 316.99 228.41 317.03 222.98 C 317.03 218.47 319.37 214.47 321.09 210.45 C 316.56 207.21 315.46 201.64 312.93 197.05 C 310.28 193.88 306.04 192.67 302.86 190.11 C 293.34 182.50 283.10 175.36 271.39 171.59 C 267.67 170.21 263.67 169.57 260.10 167.78 C 257.20 165.30 256.79 160.93 258.89 157.77 C 257.72 154.00 256.21 150.32 255.52 146.43 C 254.82 142.80 255.72 139.10 256.93 135.69 C 258.25 132.03 261.70 129.79 264.80 127.73 C 267.33 125.91 270.47 127.45 273.24 127.73 C 273.99 123.42 276.03 119.58 278.28 115.89 C 277.07 115.01 275.75 113.95 274.16 114.13 C 271.72 115.80 269.55 117.86 266.97 119.32 C 266.96 115.43 269.90 112.78 271.65 109.63 C 271.99 104.53 270.68 99.44 270.73 94.32 C 268.88 93.75 267.02 93.17 265.17 92.60 C 264.98 86.96 264.86 81.13 266.79 75.75 C 269.18 72.85 273.05 73.83 275.94 75.26 C 281.13 75.96 284.73 71.28 288.61 68.63 Z" />
<path fill="#a2643b" d=" M 328.43 86.01 C 339.79 85.51 349.78 91.59 360.45 94.42 C 365.64 95.86 371.36 95.95 375.97 99.02 C 379.68 101.51 383.25 104.49 385.46 108.44 C 389.86 116.45 392.54 125.25 394.97 134.02 C 395.49 135.92 395.84 137.86 396.09 139.82 C 397.20 152.13 398.97 164.38 400.37 176.66 C 400.77 181.12 402.19 185.67 401.22 190.13 C 399.13 194.11 394.38 195.90 390.09 195.98 C 380.76 196.33 371.40 195.32 362.09 196.30 C 357.81 196.58 352.90 197.74 349.22 194.83 C 345.27 192.39 346.17 187.16 345.60 183.22 C 343.93 182.14 342.27 181.06 340.62 179.97 C 341.97 188.86 338.08 197.11 335.06 205.21 C 333.11 202.37 331.55 199.14 328.87 196.90 C 326.99 196.17 324.91 197.02 322.98 197.23 C 322.41 195.43 321.90 193.59 321.03 191.91 C 318.69 187.86 312.75 187.56 310.79 183.24 C 306.09 169.20 307.74 154.22 306.05 139.73 C 307.45 139.55 308.86 139.38 310.27 139.20 C 308.78 136.26 306.74 133.34 306.80 129.91 C 306.89 123.07 308.77 116.23 312.48 110.45 C 315.11 106.36 316.79 101.79 318.30 97.19 C 319.40 93.40 322.48 90.80 325.29 88.26 C 325.98 89.96 326.67 91.65 327.38 93.35 C 327.73 90.90 328.08 88.45 328.43 86.01 Z" />
<path fill="#4e301c" d=" M 427.37 86.67 C 428.86 90.65 430.62 94.58 431.25 98.82 C 429.99 105.14 428.45 111.51 428.91 118.01 C 429.40 125.71 429.95 133.41 429.93 141.13 C 428.72 134.35 426.90 127.68 426.20 120.82 C 425.56 114.47 428.03 108.35 427.94 102.02 C 427.88 96.90 427.47 91.79 427.37 86.67 Z" />
<path fill="#84613c" d=" M 431.25 98.82 C 432.08 104.03 431.99 109.33 432.48 114.58 C 434.02 128.88 436.12 143.10 438.15 157.32 C 437.58 160.53 436.92 163.73 436.37 166.94 C 435.89 166.26 435.41 165.57 434.94 164.89 C 434.30 156.77 431.34 149.11 429.93 141.13 C 429.95 133.41 429.40 125.71 428.91 118.01 C 428.45 111.51 429.99 105.14 431.25 98.82 Z" />
<path fill="#553d25" d=" M 54.69 135.69 C 58.92 132.55 63.08 129.27 67.74 126.77 C 64.53 130.86 61.42 135.05 57.74 138.73 C 56.32 140.27 54.68 141.70 53.78 143.62 C 53.10 146.11 53.49 148.74 53.55 151.28 C 56.97 147.76 59.57 143.41 63.77 140.69 C 61.07 146.37 56.17 150.49 52.67 155.63 C 50.94 158.21 48.61 160.30 45.99 161.97 C 48.48 157.10 53.19 152.37 51.31 146.45 C 44.70 152.25 41.42 160.63 37.06 168.05 C 36.81 161.79 39.86 156.25 43.24 151.23 C 46.88 145.94 49.33 139.56 54.69 135.69 Z" />
<path fill="#47301c" d=" M 50.78 164.80 C 53.09 160.88 55.90 157.18 60.04 155.05 C 57.67 158.82 55.41 162.67 53.80 166.84 C 51.64 172.24 49.60 177.90 45.29 182.01 C 45.73 183.04 46.17 184.07 46.61 185.10 C 45.96 184.98 44.68 184.74 44.03 184.62 C 43.91 178.64 47.82 173.95 49.87 168.64 C 47.57 170.59 45.37 172.68 42.90 174.43 C 41.84 175.55 40.80 176.68 39.76 177.82 C 40.40 174.93 40.59 171.82 42.12 169.21 C 45.05 167.80 49.19 168.20 50.78 164.80 Z" />
<path fill="#6d4a2c" d=" M 436.37 166.94 C 436.92 163.73 437.58 160.53 438.15 157.32 C 439.60 165.22 440.82 173.18 441.43 181.20 C 441.80 187.55 441.32 193.98 442.59 200.27 C 443.87 206.43 443.78 212.74 443.65 219.00 C 443.35 228.98 444.60 238.90 445.11 248.85 L 444.03 249.02 C 443.67 246.01 443.21 243.02 442.84 240.02 C 442.45 231.72 443.39 223.34 441.98 215.10 C 440.87 205.99 437.66 197.23 437.22 188.04 C 436.88 180.28 435.66 172.61 434.94 164.89 C 435.41 165.57 435.89 166.26 436.37 166.94 Z" />
<path fill="#5e482e" d=" M 24.76 194.01 C 24.75 187.47 28.23 181.76 31.10 176.13 C 30.21 180.91 29.87 185.78 29.54 190.63 C 30.50 188.51 31.43 186.38 32.39 184.27 C 33.14 190.51 34.29 197.68 30.10 203.03 C 25.06 210.85 13.74 208.21 7.65 214.66 C 5.42 216.82 4.15 219.83 4.03 222.93 C 3.33 234.40 4.16 245.99 6.99 257.14 C 7.94 260.78 9.91 264.02 11.68 267.30 C 7.93 268.84 3.99 269.88 0.00 270.60 L 0.00 218.53 C 2.86 209.53 10.95 203.03 19.60 199.89 C 19.57 202.00 19.51 204.12 19.48 206.23 C 22.31 205.43 25.14 204.59 27.96 203.72 C 26.37 200.70 24.51 197.56 24.76 194.01 Z" />
<path fill="#321511" d=" M 362.40 205.41 C 365.94 202.88 369.26 199.04 373.96 199.10 C 379.12 199.24 384.27 199.89 389.37 200.66 C 390.97 200.76 392.95 201.96 392.40 203.81 C 390.25 209.66 385.11 214.72 386.01 221.42 C 385.79 223.93 387.83 228.69 383.85 228.86 C 378.68 228.89 374.84 224.77 370.79 222.12 C 368.38 220.39 365.86 218.85 363.32 217.33 C 361.96 218.84 360.59 220.34 359.22 221.84 C 360.41 223.31 361.60 224.77 362.79 226.25 C 361.15 229.96 358.52 233.10 355.20 235.42 C 351.52 235.08 347.66 235.22 344.21 233.72 C 340.40 231.72 338.31 227.73 335.81 224.41 C 336.22 223.14 336.66 221.88 337.10 220.62 C 344.85 214.41 354.78 211.80 362.40 205.41 Z" />
<path fill="#5e4326" d=" M 10.11 216.12 C 16.69 212.84 24.24 211.70 31.55 212.27 C 31.96 215.71 32.38 219.16 32.77 222.61 C 27.84 224.81 23.08 227.43 18.98 230.97 C 15.98 233.62 12.21 235.10 8.39 236.13 C 7.10 229.61 5.29 221.61 10.11 216.12 Z" />
<path fill="#58321f" d=" M 257.37 213.35 C 259.33 212.32 261.55 212.73 263.63 212.99 C 264.57 217.10 265.97 221.11 266.74 225.26 C 267.43 228.16 265.53 230.73 264.08 233.05 C 257.78 242.23 250.16 250.44 242.28 258.28 C 236.59 264.48 228.34 267.09 221.06 270.85 C 220.03 270.02 219.01 269.20 217.99 268.38 C 217.02 268.84 216.05 269.30 215.09 269.77 C 215.58 265.53 216.24 261.17 215.10 256.96 C 212.84 247.46 208.28 238.04 210.02 228.05 C 218.45 231.55 227.49 232.98 236.42 234.55 C 239.18 235.05 241.06 232.46 243.12 231.09 C 246.20 228.11 250.75 228.43 254.52 226.93 C 253.43 225.59 252.62 223.78 250.82 223.28 C 246.46 221.78 241.99 220.60 237.73 218.83 C 244.81 219.65 251.13 216.09 257.37 213.35 Z" />
<path fill="#502e1b" d=" M 436.22 215.38 C 437.81 213.94 440.09 215.01 441.98 215.10 C 443.39 223.34 442.45 231.72 442.84 240.02 C 441.77 233.18 442.12 226.24 441.48 219.36 C 440.76 221.45 440.08 223.56 439.44 225.68 C 438.35 225.31 437.26 224.95 436.18 224.60 C 435.99 221.54 435.62 218.42 436.22 215.38 Z" />
<path fill="#a0653b" d=" M 333.78 215.59 C 334.25 215.47 335.19 215.23 335.66 215.11 C 336.14 216.94 336.62 218.78 337.10 220.62 C 336.66 221.88 336.22 223.14 335.81 224.41 C 334.72 227.97 333.18 232.10 335.43 235.56 C 337.81 239.61 340.79 244.61 346.05 244.83 C 353.52 245.51 361.12 245.35 368.49 243.84 C 366.14 242.25 363.86 239.89 360.81 239.99 C 357.40 240.06 353.97 240.12 350.64 239.27 C 352.12 237.95 353.64 236.66 355.20 235.42 C 358.52 233.10 361.15 229.96 362.79 226.25 C 361.60 224.77 360.41 223.31 359.22 221.84 C 360.59 220.34 361.96 218.84 363.32 217.33 C 365.86 218.85 368.38 220.39 370.79 222.12 C 371.61 224.59 372.36 227.12 373.57 229.45 C 375.70 234.15 383.68 232.69 384.64 238.23 C 385.56 244.77 384.66 251.41 384.99 257.99 C 385.49 267.46 383.42 276.78 382.82 286.19 C 382.38 289.95 381.07 293.53 380.11 297.17 C 378.29 303.67 377.09 310.36 374.61 316.66 C 371.49 324.79 368.77 333.08 364.96 340.92 C 361.69 347.27 358.81 353.81 355.61 360.19 C 353.71 359.88 351.68 359.90 349.91 359.06 C 346.98 356.14 347.80 351.53 345.86 348.14 C 342.82 344.78 338.63 342.75 335.43 339.57 C 332.71 337.11 331.28 333.67 329.80 330.40 C 331.94 328.12 334.03 325.80 336.04 323.40 C 333.52 320.33 330.35 317.24 330.10 313.02 C 329.49 305.68 330.44 298.31 330.01 290.95 C 329.81 284.79 328.28 278.79 327.16 272.75 C 325.64 264.91 326.25 256.87 325.01 248.99 C 323.79 240.88 323.63 232.65 324.27 224.48 C 328.03 222.22 331.27 219.19 333.78 215.59 Z" />
<path fill="#5a3522" d=" M 372.85 215.91 C 375.02 216.33 377.35 216.51 379.30 217.66 C 381.20 218.77 381.60 221.11 382.39 222.99 C 378.60 221.57 375.32 219.10 372.85 215.91 Z" />
<path fill="#713f28" d=" M 335.43 235.56 C 333.18 232.10 334.72 227.97 335.81 224.41 C 338.31 227.73 340.40 231.72 344.21 233.72 C 347.66 235.22 351.52 235.08 355.20 235.42 C 353.64 236.66 352.12 237.95 350.64 239.27 C 353.97 240.12 357.40 240.06 360.81 239.99 C 363.86 239.89 366.14 242.25 368.49 243.84 C 361.12 245.35 353.52 245.51 346.05 244.83 C 340.79 244.61 337.81 239.61 335.43 235.56 Z" />
<path fill="#573b2c" d=" M 437.42 228.69 C 439.97 233.48 439.60 239.17 438.44 244.30 C 438.18 245.69 437.00 246.56 436.12 247.56 C 436.29 241.26 436.85 234.97 437.42 228.69 Z" />
<path fill="#50371e" d=" M 18.23 238.36 C 21.72 236.17 25.88 235.49 29.91 235.07 C 30.94 241.16 28.59 247.09 26.65 252.75 C 25.63 256.00 22.93 258.19 20.30 260.13 C 19.53 255.84 18.56 251.53 16.32 247.74 C 14.17 244.76 15.48 240.46 18.23 238.36 Z" />
<path fill="#442418" d=" M 444.03 249.02 L 445.11 248.85 C 445.61 254.49 446.54 260.07 447.09 265.71 C 447.16 271.53 447.01 277.37 447.82 283.16 C 449.17 295.45 445.40 307.51 444.93 319.76 C 443.87 324.79 442.17 329.66 440.78 334.61 C 438.25 339.96 436.04 345.45 434.08 351.03 C 432.05 355.68 429.67 360.18 427.98 364.98 C 426.28 369.81 424.66 374.69 422.36 379.28 C 422.19 377.82 422.04 376.37 421.93 374.92 C 422.58 372.87 423.35 370.87 424.15 368.87 C 424.92 366.96 425.70 365.05 426.45 363.14 C 430.38 351.76 434.99 340.64 438.99 329.28 C 441.78 321.44 443.25 313.19 444.02 304.92 C 442.53 307.54 441.03 310.18 439.77 312.93 C 440.45 309.44 440.24 305.61 442.06 302.46 C 443.37 302.03 444.75 301.87 446.11 301.65 C 445.92 290.68 446.60 279.67 445.54 268.72 C 444.98 262.16 444.83 255.56 444.03 249.02 Z" />
<path fill="#8c6c45" d=" M 447.09 265.71 C 448.35 275.10 450.12 284.48 450.02 294.00 C 449.96 305.42 450.22 316.85 449.91 328.27 C 448.23 328.46 446.55 328.67 444.88 328.88 C 445.04 325.84 444.89 322.80 444.93 319.76 C 445.40 307.51 449.17 295.45 447.82 283.16 C 447.01 277.37 447.16 271.53 447.09 265.71 Z" />
<path fill="#422a1c" d=" M 441.13 277.43 C 443.80 279.46 443.90 282.96 444.30 286.01 C 444.64 289.47 445.44 293.21 443.56 296.40 C 441.76 290.26 440.95 283.82 441.13 277.43 Z" />
<path fill="#5c3d26" d=" M 411.30 293.41 C 412.33 290.22 413.82 287.18 415.81 284.48 C 415.87 289.03 414.76 293.45 413.26 297.71 C 414.36 299.77 415.69 301.77 416.19 304.08 C 415.88 306.70 414.58 309.05 413.63 311.48 C 411.17 317.11 411.54 323.49 409.10 329.13 C 407.51 333.25 404.93 337.25 405.18 341.83 C 405.43 346.21 406.58 350.46 407.37 354.76 C 409.18 354.18 410.98 353.60 412.79 353.03 C 411.11 354.71 409.42 356.39 407.78 358.10 C 409.46 357.38 411.16 356.66 412.80 355.83 C 410.75 358.47 409.25 361.61 409.11 365.00 C 408.75 370.66 408.72 376.36 409.21 382.01 C 409.39 385.43 411.67 388.15 413.63 390.76 C 413.18 385.41 412.04 380.16 411.13 374.88 C 412.72 379.27 414.36 383.63 416.32 387.87 C 418.72 383.80 420.46 379.40 421.93 374.92 C 422.04 376.37 422.19 377.82 422.36 379.28 C 424.66 374.69 426.28 369.81 427.98 364.98 C 429.67 360.18 432.05 355.68 434.08 351.03 C 432.89 358.51 431.80 366.04 429.32 373.23 C 427.39 379.04 425.50 384.87 424.22 390.86 C 423.69 394.10 420.64 395.81 418.24 397.61 C 418.86 402.49 419.63 407.38 421.17 412.06 C 415.85 409.99 413.54 404.25 413.28 398.92 C 413.40 395.96 415.05 393.38 416.28 390.77 C 413.77 391.19 411.12 392.26 408.60 391.51 C 405.61 389.13 403.56 385.82 401.16 382.89 C 401.93 385.14 402.69 387.39 403.38 389.67 C 401.78 387.97 399.24 386.51 399.27 383.89 C 399.20 378.20 400.19 372.54 400.97 366.92 C 401.22 363.49 403.79 361.06 406.01 358.72 C 404.76 348.30 401.41 337.65 404.23 327.20 C 405.44 322.55 405.94 317.78 406.21 313.00 C 406.53 306.18 409.16 299.81 411.30 293.41 Z" />
<path fill="#6f5335" d=" M 439.77 312.93 C 441.03 310.18 442.53 307.54 444.02 304.92 C 443.25 313.19 441.78 321.44 438.99 329.28 C 438.55 327.98 438.12 326.68 437.69 325.38 C 437.06 325.82 436.44 326.26 435.83 326.70 C 437.17 322.12 438.56 317.55 439.77 312.93 Z" />
<path fill="#6a492e" d=" M 440.78 334.61 C 442.17 329.66 443.87 324.79 444.93 319.76 C 444.89 322.80 445.04 325.84 444.88 328.88 C 442.70 339.56 441.27 350.45 437.85 360.84 C 436.04 366.14 434.52 371.53 432.88 376.88 C 432.67 377.43 432.25 378.52 432.04 379.06 C 431.49 379.27 430.39 379.67 429.84 379.88 C 434.49 365.07 439.80 350.23 440.78 334.61 Z" />
<path fill="#917148" d=" M 435.83 326.70 C 436.44 326.26 437.06 325.82 437.69 325.38 C 438.12 326.68 438.55 327.98 438.99 329.28 C 434.99 340.64 430.38 351.76 426.45 363.14 C 425.76 361.27 425.06 359.41 424.36 357.56 C 421.32 359.40 417.57 361.53 417.43 365.56 C 419.39 367.16 421.81 368.00 424.15 368.87 C 423.35 370.87 422.58 372.87 421.93 374.92 C 420.46 379.40 418.72 383.80 416.32 387.87 C 414.36 383.63 412.72 379.27 411.13 374.88 C 412.04 380.16 413.18 385.41 413.63 390.76 C 411.67 388.15 409.39 385.43 409.21 382.01 C 408.72 376.36 408.75 370.66 409.11 365.00 C 409.25 361.61 410.75 358.47 412.80 355.83 C 416.17 353.82 419.55 351.83 423.04 350.03 C 425.59 348.69 428.38 347.20 429.53 344.37 C 432.18 338.70 433.88 332.64 435.83 326.70 Z" />
<path fill="#997952" d=" M 440.78 334.61 C 439.80 350.23 434.49 365.07 429.84 379.88 C 430.39 379.67 431.49 379.27 432.04 379.06 C 431.19 381.57 430.15 384.16 430.39 386.86 C 430.99 390.24 432.98 393.13 434.62 396.08 C 433.00 397.74 431.29 399.34 430.01 401.28 C 430.56 405.33 432.92 409.21 436.18 411.66 C 443.34 415.13 451.45 414.86 459.18 414.81 C 462.31 419.17 463.57 424.66 466.97 428.91 C 465.13 429.50 463.30 430.13 461.46 430.73 C 461.87 431.26 462.70 432.31 463.11 432.83 C 465.46 431.95 467.82 431.07 470.17 430.19 C 469.86 427.78 469.57 425.36 469.28 422.95 C 471.20 423.69 473.12 424.44 475.00 425.30 L 475.00 473.86 C 459.38 473.84 443.77 473.83 428.15 473.86 C 426.24 470.49 424.00 467.07 423.75 463.08 C 423.21 456.15 424.55 449.29 425.46 442.45 C 426.69 433.95 425.53 425.22 423.09 417.04 C 422.46 415.37 421.77 413.73 421.17 412.06 C 419.63 407.38 418.86 402.49 418.24 397.61 C 420.64 395.81 423.69 394.10 424.22 390.86 C 425.50 384.87 427.39 379.04 429.32 373.23 C 431.80 366.04 432.89 358.51 434.08 351.03 C 436.04 345.45 438.25 339.96 440.78 334.61 Z" />
<path fill="#402319" d=" M 396.18 354.01 C 397.42 355.64 398.86 357.19 399.66 359.11 C 398.31 363.65 396.89 368.19 396.68 372.97 C 395.46 369.82 393.88 366.61 394.14 363.14 C 394.36 360.01 395.31 357.01 396.18 354.01 Z" />
<path fill="#a38458" d=" M 417.43 365.56 C 417.57 361.53 421.32 359.40 424.36 357.56 C 425.06 359.41 425.76 361.27 426.45 363.14 C 425.70 365.05 424.92 366.96 424.15 368.87 C 421.81 368.00 419.39 367.16 417.43 365.56 Z" />
<path fill="#9a7a53" d=" M 432.88 376.88 C 434.52 371.53 436.04 366.14 437.85 360.84 C 437.73 364.06 437.48 367.44 438.58 370.53 C 439.67 372.56 441.49 374.06 443.09 375.68 C 440.42 375.26 437.74 374.89 435.07 374.48 C 434.32 375.27 433.58 376.06 432.88 376.88 Z" />
<path fill="#3b1a13" d=" M 325.77 370.23 C 327.80 367.75 329.68 365.10 332.16 363.04 C 334.82 364.08 337.08 365.95 338.99 368.05 C 340.99 369.90 339.03 372.95 337.51 374.51 C 335.60 376.11 333.16 378.64 330.46 377.65 C 328.05 375.83 327.08 372.82 325.77 370.23 Z" />
<path fill="#935639" d=" M 311.76 372.73 C 316.52 372.09 321.28 373.03 326.03 373.35 C 327.25 375.92 329.51 379.46 326.96 381.94 C 323.51 385.16 319.32 389.51 314.10 387.86 C 309.38 385.90 305.29 382.56 300.21 381.42 C 300.14 379.07 300.09 376.71 300.05 374.36 C 303.97 373.92 307.85 373.23 311.76 372.73 Z" />
<path fill="#5d3d25" d=" M 414.17 409.74 C 416.80 413.59 419.15 417.63 421.74 421.51 C 422.19 420.01 422.64 418.53 423.09 417.04 C 425.53 425.22 426.69 433.95 425.46 442.45 C 424.55 449.29 423.21 456.15 423.75 463.08 C 424.00 467.07 426.24 470.49 428.15 473.86 C 426.16 473.88 424.17 473.90 422.19 473.93 C 423.13 467.66 423.50 461.31 423.15 454.98 C 422.69 447.23 423.57 439.30 421.33 431.76 C 421.06 436.87 421.71 441.95 422.15 447.03 C 422.54 451.47 421.36 455.83 420.24 460.09 C 417.74 458.37 415.31 456.56 412.90 454.73 C 410.56 458.62 407.55 462.06 403.87 464.74 C 405.27 460.39 407.56 455.34 404.93 450.99 C 401.94 446.42 397.39 443.20 393.41 439.55 C 386.85 433.33 377.17 434.18 368.91 432.40 C 369.97 429.16 371.40 426.05 373.37 423.25 C 375.25 424.45 377.10 425.76 379.15 426.67 C 380.35 426.22 380.96 425.02 381.68 424.05 C 387.01 427.37 392.34 430.78 397.02 435.01 C 399.93 437.54 400.72 441.47 402.41 444.77 C 403.52 447.19 405.95 448.51 407.99 450.03 C 409.64 439.73 405.31 429.87 404.36 419.72 C 405.13 421.15 405.99 422.53 406.85 423.91 C 406.13 420.44 405.35 416.97 404.71 413.49 C 405.94 413.77 407.17 414.06 408.41 414.36 C 409.08 413.05 409.76 411.74 410.46 410.45 C 412.56 413.31 414.56 416.26 416.28 419.38 C 414.04 426.74 417.37 434.11 418.77 441.29 C 419.37 434.57 419.25 427.71 417.27 421.21 C 416.36 417.35 415.27 413.55 414.17 409.74 Z" />
<path fill="#5f4428" d=" M 389.04 415.15 C 393.42 413.78 398.04 413.50 402.58 412.98 C 402.95 414.43 403.33 415.89 403.73 417.35 C 402.45 415.67 400.55 414.07 398.31 415.01 C 393.56 415.59 390.69 419.59 388.40 423.35 C 386.64 422.71 384.87 422.08 383.10 421.49 C 384.56 419.00 386.03 416.00 389.04 415.15 Z" />
<path fill="#8b6c45" d=" M 398.31 415.01 C 400.55 414.07 402.45 415.67 403.73 417.35 C 403.88 417.94 404.20 419.13 404.36 419.72 C 405.31 429.87 409.64 439.73 407.99 450.03 C 405.95 448.51 403.52 447.19 402.41 444.77 C 400.72 441.47 399.93 437.54 397.02 435.01 C 392.34 430.78 387.01 427.37 381.68 424.05 C 382.03 423.41 382.74 422.13 383.10 421.49 C 384.87 422.08 386.64 422.71 388.40 423.35 C 390.69 419.59 393.56 415.59 398.31 415.01 Z" />
<path fill="#7e5f3c" d=" M 409.35 417.96 C 412.45 423.46 413.91 429.65 415.29 435.75 C 416.46 441.51 416.93 447.71 414.67 453.29 C 413.46 448.85 412.83 444.30 412.31 439.74 C 411.50 432.46 409.80 425.29 409.35 417.96 Z" />
<path fill="#7c5d3c" d=" M 418.77 441.29 C 417.37 434.11 414.04 426.74 416.28 419.38 C 416.53 419.84 417.03 420.75 417.27 421.21 C 419.25 427.71 419.37 434.57 418.77 441.29 Z" />
<path fill="#604227" d=" M 375.00 439.04 C 382.21 441.31 389.11 445.11 394.25 450.73 C 396.38 452.94 396.64 456.13 397.21 459.00 C 394.86 459.32 392.18 460.54 390.05 458.91 C 387.02 456.75 383.50 455.53 380.28 453.72 C 377.58 451.25 376.32 447.66 374.68 444.46 C 376.38 445.70 378.07 446.94 379.78 448.18 C 378.16 445.14 376.52 442.12 375.00 439.04 Z" />
<path fill="#4f2817" d=" M 246.59 464.61 C 250.53 462.25 254.51 459.78 259.09 458.90 C 256.38 463.48 253.33 467.86 250.12 472.10 C 248.61 474.52 245.46 473.94 243.03 474.16 C 234.02 474.05 225.01 474.25 216.01 473.83 C 220.16 471.49 224.43 469.09 229.22 468.35 C 235.03 467.29 241.36 467.79 246.59 464.61 Z" />
<path fill="#4f341d" d=" M 388.58 470.70 C 395.70 469.45 402.83 471.10 409.95 471.32 C 409.83 471.91 409.58 473.07 409.46 473.65 C 403.67 474.17 397.81 474.61 392.01 473.96 C 390.02 474.11 389.51 471.99 388.58 470.70 Z" />
</svg>
